<svg width="56" height="56" viewBox="0 0 56 56" fill="none" xmlns="http://www.w3.org/2000/svg">
<g filter="url(#filter0_d_38_317)">
<rect x="4" width="48" height="48" rx="5" fill="white" shape-rendering="crispEdges"/>
<g filter="url(#filter1_d_38_317)">
<path d="M39.265 24V30.435C39.265 31.716 38.7561 32.9445 37.8503 33.8503C36.9445 34.7561 35.716 35.265 34.435 35.265H21.565C20.284 35.265 19.0555 34.7561 18.1497 33.8503C17.2439 32.9445 16.735 31.716 16.735 30.435V17.565C16.735 16.284 17.2439 15.0555 18.1497 14.1497C19.0555 13.2439 20.284 12.735 21.565 12.735H28" stroke="#1D1D1B" stroke-width="2" stroke-linecap="round" stroke-linejoin="round"/>
<path d="M38.9695 9.67142L35.4905 13.1504L38.8528 16.5127L42.3318 13.0337L38.9695 9.67142Z" stroke="#1D1D1B" stroke-width="2" stroke-linecap="round" stroke-linejoin="round"/>
<path d="M38.86 16.515L32.215 23.16L28.81 23.205L28.855 19.785L35.5 13.155L38.86 16.515Z" stroke="#1D1D1B" stroke-width="2" stroke-linecap="round" stroke-linejoin="round"/>
</g>
</g>
<defs>
<filter id="filter0_d_38_317" x="0" y="0" width="56" height="56" filterUnits="userSpaceOnUse" color-interpolation-filters="sRGB">
<feFlood flood-opacity="0" result="BackgroundImageFix"/>
<feColorMatrix in="SourceAlpha" type="matrix" values="0 0 0 0 0 0 0 0 0 0 0 0 0 0 0 0 0 0 127 0" result="hardAlpha"/>
<feOffset dy="4"/>
<feGaussianBlur stdDeviation="2"/>
<feComposite in2="hardAlpha" operator="out"/>
<feColorMatrix type="matrix" values="0 0 0 0 0 0 0 0 0 0 0 0 0 0 0 0 0 0 0.25 0"/>
<feBlend mode="normal" in2="BackgroundImageFix" result="effect1_dropShadow_38_317"/>
<feBlend mode="normal" in="SourceGraphic" in2="effect1_dropShadow_38_317" result="shape"/>
</filter>
<filter id="filter1_d_38_317" x="6" y="6" width="44" height="44" filterUnits="userSpaceOnUse" color-interpolation-filters="sRGB">
<feFlood flood-opacity="0" result="BackgroundImageFix"/>
<feColorMatrix in="SourceAlpha" type="matrix" values="0 0 0 0 0 0 0 0 0 0 0 0 0 0 0 0 0 0 127 0" result="hardAlpha"/>
<feOffset dy="4"/>
<feGaussianBlur stdDeviation="2"/>
<feComposite in2="hardAlpha" operator="out"/>
<feColorMatrix type="matrix" values="0 0 0 0 0 0 0 0 0 0 0 0 0 0 0 0 0 0 0.25 0"/>
<feBlend mode="normal" in2="BackgroundImageFix" result="effect1_dropShadow_38_317"/>
<feBlend mode="normal" in="SourceGraphic" in2="effect1_dropShadow_38_317" result="shape"/>
</filter>
</defs>
</svg>
